<svg id="Layer_1" data-name="Layer 1" xmlns="http://www.w3.org/2000/svg" width="20.7274" height="16.958" viewBox="0 0 20.7274 16.958"><title>email</title><path d="M.2137,6.337A2.5522,2.5522,0,0,1,2.7071,4.3676H18.0517A2.5522,2.5522,0,0,1,20.5451,6.337L10.3794,12.491ZM.15,7.7834v8.9973l7.42-4.5062Zm8.6454,5.2345-8.4011,5.1a2.5593,2.5593,0,0,0,2.3131,1.4476H18.0517a2.5594,2.5594,0,0,0,2.3119-1.4489l-8.4012-5.1-1.583.9587-1.5843-.9587Zm4.3936-.7422,7.42,4.505V7.7834l-7.42,4.4911Z" transform="translate(-0.1497 -2.6078)"/><path d="M20.8771,6.452a3.8442,3.8442,0,1,1-3.8442-3.8442A3.8442,3.8442,0,0,1,20.8771,6.452Z" transform="translate(-0.1497 -2.6078)" style="fill:#ee2733"/></svg>