<svg id="Layer_1" data-name="Layer 1" xmlns="http://www.w3.org/2000/svg" width="23" height="23.0409" viewBox="0 0 19.4028 20.0409"><title>linkedinowner</title><path d="M1.3468,3.6991A1.3156,1.3156,0,0,1,2.6786,2.4H18.15a1.3156,1.3156,0,0,1,1.3318,1.2989V19.2362A1.3155,1.3155,0,0,1,18.15,20.5351H2.6786a1.3155,1.3155,0,0,1-1.3318-1.2989ZM6.9494,17.5814V9.3924H4.228v8.189Zm-1.36-9.3077a1.4189,1.4189,0,1,0,.0182-2.8291,1.4185,1.4185,0,1,0-.0363,2.8291Zm5.5629,9.3077V13.008a1.849,1.849,0,0,1,.0907-.6642,1.4887,1.4887,0,0,1,1.3964-.9951c.9849,0,1.3782.75,1.3782,1.852v4.3807h2.7214V12.8845c0-2.5163-1.342-3.686-3.1328-3.686a2.704,2.704,0,0,0-2.4539,1.3522v.0284H11.134l.0181-.0284V9.3924h-2.72c.034.7684,0,8.189,0,8.189Z" transform="translate(-1.3468 -0.4942)"/><path d="M20.75,4.505A4.0108,4.0108,0,1,1,16.7388.4942,4.0108,4.0108,0,0,1,20.75,4.505Z" transform="translate(-1.3468 -0.4942)" style="fill:#ee2733"/></svg>