<svg id="Layer_1" data-name="Layer 1" xmlns="http://www.w3.org/2000/svg" width="15.4624" height="16.0182" viewBox="0 0 15.4624 16.0182"><title>pitchbook</title><path d="M13.4846,1.3818C3.9881,2.1255.0408,9.8056,1.6,14.64c.93-1.373,2.6459-2.86,6.1069-3.4325C7.5207,7.1169,9.051,4.2851,13.4846,1.3818Z" transform="translate(-1.2688 -1.3818)" style="fill:#010101"/><path d="M8.6077,11.7793A9.6782,9.6782,0,0,0,3.4733,13.753,7.6182,7.6182,0,0,0,4.5459,17.4c.8152-1.9308,3.4611-3.3181,7.5229-3.3181-1.0012-4.6195,1.187-8.8672,4.6624-11.7276a21.0354,21.0354,0,0,0-4.9485,1.3015A9.5994,9.5994,0,0,0,8.6077,11.7793Z" transform="translate(-1.2688 -1.3818)" style="fill:#010101"/></svg>