<svg width="325" height="331" viewBox="0 0 325 331" fill="none" xmlns="http://www.w3.org/2000/svg">
<rect width="325" height="331" rx="25" fill=""/>
<g clip-path="url(#clip0_3_9)">
<path d="M163 315C245.843 315 313 247.843 313 165C313 82.1573 245.843 15 163 15C80.1573 15 13 82.1573 13 165C13 247.843 80.1573 315 163 315Z" fill=""/>
<path d="M162.497 155.465C193.901 155.465 219.36 130.007 219.36 98.602C219.36 67.1975 193.901 41.7391 162.497 41.7391C131.092 41.7391 105.634 67.1975 105.634 98.602C105.634 130.007 131.092 155.465 162.497 155.465Z" fill="white"/>
<path d="M219.36 212.328C219.36 243.732 241.974 301.34 162.497 269.191C84.0263 275.183 105.634 243.732 105.634 212.328C105.634 180.923 131.093 155.465 162.497 155.465C193.902 155.465 219.36 180.923 219.36 212.328Z" fill="white"/>
<path d="M270.143 195.706C270.143 227.111 250.764 212.328 219.36 212.328C187.955 212.328 162.497 186.869 162.497 155.465C162.497 124.06 187.955 98.6021 219.36 98.6021C250.764 98.6021 270.143 164.302 270.143 195.706Z" fill="white"/>
<path d="M162.497 155.465C162.497 186.87 137.039 212.328 105.634 212.328C74.2296 212.328 55.8572 141.598 55.8572 110.193C55.8572 78.7889 74.2296 98.6021 105.634 98.6021C137.039 98.6021 162.497 124.061 162.497 155.465Z" fill="white"/>
</g>
<defs>
<clipPath id="clip0_3_9">
<rect width="300" height="300" fill="white" transform="translate(13 15)"/>
</clipPath>
</defs>
</svg>
