<svg id="Layer_1" data-name="Layer 1" xmlns="http://www.w3.org/2000/svg" width="1331.9855" height="766.7602" viewBox="0 0 1331.9855 766.7602"><title>brokenGlass2</title><path d="M770.3164,752.2428,639.6818,823.94l-148.424-25.8279,135.2931-136.26,123.7021-5.0836,120.9006,49.7824-.5021.3846,8.1773,3.2435L676.905,740.9728l235.7691-17.3689L1380.79,909.28l-184.9353-81.2771,65.6574-92.1636-90.6885,81.1627L961.0039,724.7882l54.9227-53.5464,114.3961,54.4641-163.8692-100.54-.4208.24L907.744,590.32l28.3971-19.1943,159.1861,54.1695-24.2183,41.7485,49.6569-33.0919,220.5875,75.0635L974.6269,568.2229l2.4226-47.7611,152.275-7.8754-84.6056-1.4657L999.2377,423.37l14.3086,87.2113L882.19,508.3051l-6.5287-65.7,178.898-104.47L1166.48,428.0978l-90.3625-102.5524,76.7764-44.8346L921.841,395.9912l-84.8316-79.9928L899.0142,407.38l-25.5849,12.7653-.0637-.6373-11.9522,6.6325-19.8841,9.9208.5639.32-98.21-33.11,16.5726-63.8489.4666.1324L854.2981,212.28l179.1878,52.8074L865.948,196.4009l24.478-33.3636-71.1512,75.4816-182.72-13.696L557.4807,142.52,602.5,222.27,378.1648,205.4549l426.0473,49.043L731.82,331.2963l.6574.1865-97.8207,97.6416-33.5195,18.0265-143.22-61.6555,93.9871-92.6547L433.6359,375.042,112.083,236.6145l434.8012,207.09L519.7685,497.755l-327.45-69.5158,60.1329-72.3176-90.5041,65.87L48.8039,397.7721l204.371,50.1361L236.02,496.7265,95.9861,553.9615l132.2778-35.1639L186.1567,638.621l38.752-73.6216,143.5,46.1325-134.7787-62.7,19.009-36.1136,1.1214-.2982-.6622-.574,29.6284-56.2879,316.7308,77.7-3.5664,34.91L484.3993,618.4924l.2951.1024-2.6932,1.2742-50.9907-90.5231,25.4969,102.5827L198.1384,754.1461,89.4066,683.6756l85.5387,81.4416L62.101,818.4967l230.43-96.8906,125.94,54.96L315.7391,711.8477l197.89-83.2082,81.3731,28.2493-50.78,62.8007L443.2848,690.8573l89.1382,43.424L434.969,854.803l41.78-42.0785-.3674.9825,356.7717,43.9L672.1747,829.5941Zm173.3688-35.0659L892.9,694.8574,866.876,648.3015l80.2294-9.8258,51.9395,24.7287Zm-50.94-135.885-23.668-14.2471,7.729-16.11,40.4742,13.7731Zm60.9728-21.096-71.3918-27.4085.3777-7.4464,72.9735-3.7741ZM827.6023,444.9022l-57.9029,32.13L731.477,451.0685l9.2061-35.4693Zm-262.61,7.4267,20.7427,9.88.579-.4041,48.4353,22.24-27.5,32.2826L540.0433,502.06Zm51.6347,121.728,4.6943-45.97,39.824-46.748-49.6647-22.8061,40.5255-21.7988,83.0218-82.8631L709.06,453.9011l59.9448,40.723,85.8727-47.65,6.9512,69.6835-1.0721,21.1368-15.2931,31.882,95.264,57.3443L840.01,639.3528l29.1461,52.1392L755.4563,644.6748l-140.1272,5.759-94.48-32.8005Z" transform="translate(-48.8039 -142.5195)" style="fill:#231f20"/></svg>