<?xml version="1.0" standalone="no"?>
   <!DOCTYPE svg PUBLIC "-//W3C//DTD SVG 1.1//EN" 
   "http://www.w3.org/Graphics/SVG/1.1/DTD/svg11.dtd"><svg id="svg" version="1.1" width="642" height="729" xmlns="http://www.w3.org/2000/svg"><path d="M69.000 60.796 C 69.000 61.894,88.094 94.226,111.432 132.646 C 134.769 171.066,164.653 220.380,177.839 242.233 L 201.814 281.966 184.466 333.733 C 174.924 362.205,166.021 387.672,164.680 390.326 C 163.237 393.182,156.629 395.921,148.481 397.037 C 120.101 400.927,49.718 415.073,53.113 416.204 C 55.055 416.852,82.939 412.570,115.077 406.691 C 147.216 400.811,175.421 396.000,177.755 396.000 C 184.833 396.000,182.620 404.665,169.172 429.609 C 161.720 443.431,157.114 455.411,158.181 458.194 C 159.416 461.410,158.847 462.260,156.452 460.780 C 153.354 458.864,114.000 486.819,114.000 490.935 C 114.000 493.196,120.464 488.836,135.416 476.490 C 151.087 463.551,153.001 462.790,151.101 470.250 C 149.287 477.373,173.048 525.817,177.610 524.297 C 179.584 523.639,191.581 505.015,204.272 482.909 C 216.962 460.804,228.505 442.383,229.922 441.974 C 231.340 441.565,236.123 444.216,240.552 447.865 L 248.604 454.500 224.829 555.000 C 211.753 610.275,201.435 657.525,201.901 660.000 C 202.366 662.475,205.755 651.643,209.433 635.928 L 216.118 607.357 265.388 582.775 C 312.938 559.052,314.725 558.426,316.599 564.847 C 324.361 591.439,345.817 659.618,347.960 664.500 C 355.008 680.556,349.400 658.303,334.619 611.562 C 325.610 583.072,318.522 559.656,318.869 559.526 C 319.216 559.397,325.823 554.259,333.550 548.108 C 341.278 541.958,348.184 537.955,348.898 539.213 C 349.613 540.471,353.301 550.950,357.095 562.500 C 360.890 574.050,364.519 581.928,365.161 580.007 C 366.986 574.547,353.740 533.806,350.743 535.659 C 349.272 536.568,348.817 535.361,349.732 532.976 C 351.092 529.434,345.111 509.407,331.224 471.000 C 329.856 467.218,329.118 467.353,326.597 471.844 C 323.243 477.818,326.401 489.686,337.938 514.460 C 341.790 522.732,344.955 530.959,344.971 532.741 C 345.000 535.949,318.361 556.626,316.852 554.567 C 316.422 553.980,313.027 543.375,309.307 531.000 C 287.892 459.749,284.051 448.087,280.653 444.000 C 278.596 441.525,275.158 432.750,273.014 424.500 C 267.611 403.711,264.963 402.115,261.182 417.368 C 254.680 443.605,251.557 453.557,250.240 452.240 C 249.111 451.111,254.362 426.668,259.906 407.250 C 260.941 403.624,259.718 402.003,255.952 402.010 C 252.428 402.017,247.355 407.852,241.605 418.510 C 236.713 427.580,231.574 435.000,230.185 435.000 C 228.796 435.000,231.194 429.263,235.513 422.250 C 253.556 392.958,253.101 386.872,234.000 402.000 C 227.248 407.348,220.996 410.996,220.108 410.108 C 219.219 409.219,208.197 416.422,195.614 426.114 C 183.030 435.805,172.211 443.211,171.572 442.572 C 168.143 439.143,193.137 408.506,204.163 402.621 C 219.289 394.547,219.000 394.554,219.000 402.252 C 219.000 408.045,219.882 407.805,231.014 398.989 C 237.622 393.755,242.346 388.369,241.512 387.019 C 239.936 384.470,199.044 386.000,194.553 388.776 C 193.149 389.644,192.000 389.038,192.000 387.429 C 192.000 381.128,215.400 366.000,225.147 366.000 C 234.182 366.000,234.585 366.402,230.421 371.250 C 221.067 382.142,220.982 384.360,229.999 382.263 C 241.272 379.641,252.011 372.754,251.954 368.181 C 251.837 358.802,246.272 355.843,229.566 356.278 C 211.458 356.749,197.726 364.880,189.617 379.934 C 184.551 389.338,187.402 393.458,197.434 391.234 C 205.142 389.524,205.064 389.724,195.677 395.723 C 183.787 403.322,183.560 403.342,184.083 396.750 C 184.399 392.769,182.554 391.701,176.451 392.332 L 168.403 393.164 185.083 342.832 C 194.258 315.149,203.038 291.150,204.595 289.500 C 206.447 287.537,209.453 288.981,213.289 293.677 L 219.153 300.853 217.309 284.677 L 215.465 268.500 229.352 261.270 C 237.461 257.048,244.257 255.175,245.685 256.770 C 247.030 258.271,252.038 270.703,256.815 284.396 C 265.257 308.596,265.565 309.015,267.834 299.396 C 271.183 285.192,274.113 187.096,271.377 180.794 C 270.112 177.882,269.323 172.800,269.623 169.500 C 270.065 164.643,269.636 164.357,267.373 168.000 C 262.712 175.504,242.217 235.034,241.846 242.146 C 241.591 247.042,237.156 250.991,225.000 257.146 C 211.685 263.887,208.315 267.113,207.541 273.854 C 206.688 281.281,204.759 279.185,190.148 254.949 L 173.716 227.690 221.108 177.967 C 268.261 128.495,268.504 128.295,269.280 138.372 C 269.708 143.942,270.765 152.797,271.628 158.048 L 273.196 167.597 313.301 136.707 C 349.708 108.666,355.578 105.235,376.953 99.500 C 389.904 96.026,411.300 91.857,424.500 90.235 L 448.500 87.287 422.873 88.454 C 372.061 90.766,347.492 101.472,291.000 145.917 L 274.500 158.898 272.890 108.699 C 271.522 66.065,271.171 63.247,270.559 90.000 L 269.838 121.500 248.392 144.000 C 236.596 156.375,214.386 179.560,199.036 195.522 L 171.127 224.544 155.590 198.522 C 126.585 149.945,74.138 64.513,71.563 61.650 C 70.153 60.083,69.000 59.698,69.000 60.796 M395.725 143.321 C 378.210 161.452,361.207 182.180,357.000 190.532 C 352.875 198.722,345.342 213.242,340.259 222.799 L 331.018 240.177 302.009 205.267 C 286.054 186.067,273.000 171.278,273.000 172.404 C 273.000 175.626,327.132 241.027,333.478 245.472 C 338.783 249.189,340.219 247.232,354.377 216.989 C 372.430 178.425,383.777 161.882,412.160 132.750 C 423.814 120.788,431.910 111.000,430.150 111.000 C 428.390 111.000,412.899 125.545,395.725 143.321 M268.821 196.745 C 267.819 199.355,266.925 219.943,266.832 242.495 L 266.665 283.500 261.000 270.000 C 253.841 252.939,253.706 249.088,260.250 248.645 C 263.148 248.449,261.918 247.441,257.504 246.395 L 249.509 244.500 256.754 222.357 C 260.739 210.179,264.000 198.366,264.000 196.107 C 264.000 193.848,265.494 192.000,267.321 192.000 C 269.147 192.000,269.822 194.135,268.821 196.745 M322.746 257.250 C 319.794 263.438,314.930 281.147,311.936 296.604 C 306.344 325.475,301.876 334.890,297.290 327.469 C 295.936 325.279,293.968 323.603,292.915 323.744 C 284.977 324.806,282.142 322.270,277.269 309.750 L 271.722 295.500 269.117 313.495 C 267.683 323.392,266.011 331.989,265.400 332.600 C 264.790 333.210,255.516 328.887,244.792 322.993 C 230.130 314.933,225.748 313.543,227.125 317.388 C 229.686 324.540,225.355 320.080,216.819 306.778 C 210.984 297.685,209.905 296.953,211.250 303.000 C 212.167 307.125,212.937 312.097,212.959 314.048 C 212.999 317.475,224.157 322.808,228.750 321.594 C 229.988 321.267,231.000 323.052,231.000 325.560 C 231.000 331.602,245.919 355.081,248.267 352.733 C 249.275 351.725,248.503 349.303,246.550 347.350 C 240.696 341.496,242.403 340.284,254.837 341.470 C 266.029 342.538,266.834 342.052,269.623 332.550 C 272.113 324.065,272.350 325.303,271.143 340.500 C 270.358 350.400,269.190 361.949,268.549 366.165 L 267.384 373.831 293.442 361.205 C 307.774 354.261,326.925 345.086,336.000 340.817 C 365.877 326.762,450.000 279.774,450.000 277.140 C 450.000 275.607,434.087 283.682,408.294 298.303 L 389.088 309.189 382.044 302.572 C 378.170 298.932,375.000 294.963,375.000 293.752 C 375.000 292.541,384.010 286.598,395.023 280.544 C 413.763 270.244,417.317 269.396,450.467 267.325 C 469.949 266.108,486.867 264.133,488.064 262.936 C 489.260 261.740,473.423 261.670,452.869 262.781 C 418.701 264.628,413.475 265.717,391.860 275.496 L 368.221 286.191 358.894 274.346 C 348.072 260.600,333.312 246.000,330.238 246.000 C 329.068 246.000,325.697 251.063,322.746 257.250 M372.000 293.796 C 372.000 294.568,370.436 293.636,368.525 291.725 C 364.550 287.750,351.364 297.063,330.435 318.627 C 315.778 333.728,315.444 332.411,324.087 293.608 C 333.662 250.624,333.395 250.803,354.303 273.327 C 364.036 283.812,372.000 293.023,372.000 293.796 M489.198 295.265 C 490.132 297.044,499.921 310.221,510.952 324.547 C 533.758 354.164,534.561 352.451,496.500 355.357 C 454.586 358.557,403.788 363.158,395.250 364.527 C 390.713 365.255,387.000 364.697,387.000 363.288 C 387.000 359.120,371.496 326.504,370.153 327.847 C 369.476 328.524,372.372 336.878,376.588 346.412 C 380.805 355.945,383.859 364.101,383.377 364.535 C 382.895 364.969,368.325 366.836,351.000 368.683 C 323.328 371.634,308.607 373.987,279.000 380.189 L 271.500 381.760 280.500 385.745 C 285.450 387.936,295.317 389.790,302.427 389.865 C 309.601 389.940,314.587 391.242,313.630 392.790 C 312.671 394.342,316.581 395.340,322.439 395.040 C 328.233 394.743,332.979 394.075,332.987 393.556 C 332.994 393.037,328.677 388.987,323.394 384.556 L 313.789 376.500 325.644 374.866 C 341.023 372.745,342.000 373.396,342.000 385.752 C 342.000 395.004,340.964 396.357,332.598 398.030 L 323.196 399.911 331.098 404.051 C 340.613 409.037,341.498 412.197,332.587 409.369 C 325.804 407.216,303.000 405.477,303.000 407.113 C 303.000 409.547,314.735 449.396,317.618 456.750 C 319.396 461.288,320.496 465.000,320.062 465.000 C 319.627 465.000,312.220 458.379,303.601 450.287 C 289.230 436.795,288.182 434.912,290.965 427.592 C 292.634 423.202,294.000 415.824,294.000 411.197 C 294.000 403.822,292.632 402.563,282.908 400.985 C 276.807 399.995,271.272 399.728,270.609 400.391 C 268.516 402.484,276.544 424.246,281.629 430.266 C 284.828 434.052,285.079 435.196,282.361 433.598 C 279.665 432.013,278.645 432.435,279.436 434.807 C 280.104 436.811,281.586 438.011,282.730 437.475 C 283.874 436.939,292.887 444.493,302.760 454.262 L 320.709 472.024 326.671 464.762 C 329.951 460.768,334.996 448.725,337.882 438.000 C 342.917 419.297,346.633 413.198,351.975 414.874 C 353.336 415.301,354.596 416.966,354.774 418.575 C 355.135 421.834,367.186 432.000,370.688 432.000 C 371.921 432.000,370.539 429.358,367.617 426.129 C 362.408 420.374,362.488 420.328,371.652 423.787 C 380.699 427.202,381.000 427.901,381.000 445.486 C 381.000 473.279,375.130 514.189,370.794 516.615 C 363.311 520.803,352.546 530.801,355.500 530.819 C 357.150 530.830,363.006 527.101,368.512 522.533 C 377.650 514.952,378.749 512.221,381.099 491.274 C 382.514 478.650,383.959 459.474,384.309 448.661 C 384.763 434.633,386.087 429.000,388.931 429.000 C 391.122 429.000,413.715 434.400,439.136 441.000 C 464.557 447.600,486.066 453.000,486.933 453.000 C 487.800 453.000,481.795 468.000,473.588 486.333 C 465.381 504.666,459.215 520.215,459.886 520.886 C 460.556 521.556,467.719 507.263,475.803 489.123 C 485.052 468.365,492.168 456.136,495.000 456.129 C 497.475 456.123,519.413 461.393,543.750 467.839 C 568.088 474.285,588.000 478.572,588.000 477.366 C 588.000 476.161,557.429 467.394,520.064 457.884 C 455.833 441.537,450.924 439.782,430.064 425.706 C 409.113 411.568,403.406 406.531,411.750 409.541 C 418.873 412.111,585.656 435.344,587.040 433.960 C 589.077 431.923,580.914 430.559,475.500 415.322 C 422.700 407.690,379.315 401.233,379.089 400.973 C 378.863 400.713,377.724 393.413,376.558 384.750 C 374.545 369.804,374.780 369.000,381.160 369.000 C 395.428 369.000,586.473 350.524,587.945 349.002 C 588.800 348.117,577.475 347.867,562.778 348.447 L 536.055 349.500 520.778 331.323 C 493.373 298.716,487.474 291.981,489.198 295.265 M379.037 304.215 C 383.759 311.420,383.728 311.450,356.373 326.705 C 341.307 335.107,328.419 341.419,327.733 340.733 C 325.921 338.921,367.648 297.000,371.264 297.000 C 372.939 297.000,376.437 300.247,379.037 304.215 M246.000 334.821 C 246.000 335.469,243.975 336.000,241.500 336.000 C 239.025 336.000,237.000 334.692,237.000 333.094 C 237.000 331.496,239.025 330.965,241.500 331.915 C 243.975 332.865,246.000 334.172,246.000 334.821 M263.344 348.750 C 262.158 351.638,259.008 354.000,256.344 354.000 C 250.526 354.000,251.930 359.856,258.785 364.180 C 265.480 368.403,267.603 365.459,266.462 353.538 C 265.749 346.101,264.941 344.860,263.344 348.750 M295.500 363.557 C 275.017 375.086,274.796 375.336,286.500 373.721 C 293.100 372.811,301.808 372.051,305.850 372.033 C 311.567 372.007,312.400 371.200,309.600 368.400 C 304.813 363.613,305.042 360.000,310.133 360.000 C 312.406 360.000,315.946 357.975,318.000 355.500 C 323.601 348.751,318.667 350.518,295.500 363.557 M523.500 369.481 C 498.073 382.652,455.817 408.817,457.407 410.407 C 458.324 411.324,462.770 409.373,467.287 406.072 C 471.804 402.770,489.338 392.261,506.250 382.718 C 523.163 373.175,537.000 364.834,537.000 364.184 C 537.000 362.511,536.820 362.581,523.500 369.481 M373.325 384.923 L 375.420 399.346 360.960 398.423 L 346.500 397.500 345.586 384.930 L 344.673 372.361 357.586 371.430 C 364.689 370.919,370.665 370.500,370.866 370.500 C 371.067 370.500,372.174 376.990,373.325 384.923 M277.500 393.000 C 276.480 394.650,276.738 396.018,278.073 396.041 C 279.408 396.063,283.875 396.839,288.000 397.764 C 295.239 399.387,295.297 399.281,289.677 394.723 C 282.912 389.237,280.074 388.835,277.500 393.000 M300.000 397.597 C 300.000 400.019,301.240 402.000,302.755 402.000 C 304.270 402.000,307.829 402.890,310.664 403.978 C 314.160 405.319,315.396 404.688,314.505 402.015 C 312.480 395.939,300.000 392.138,300.000 397.597 M375.976 405.057 C 396.010 407.977,402.478 410.519,420.077 422.389 C 431.420 430.040,440.431 436.537,440.101 436.828 C 437.575 439.052,357.309 415.190,350.579 410.214 C 340.990 403.125,339.233 397.795,347.250 400.115 C 350.138 400.951,363.064 403.175,375.976 405.057 M338.707 415.724 C 339.371 416.379,337.533 425.708,334.624 436.457 C 329.372 455.860,324.000 462.280,324.000 449.154 C 324.000 445.388,322.142 435.144,319.871 426.389 L 315.742 410.471 326.621 412.503 C 332.604 413.621,338.043 415.070,338.707 415.724 M223.705 442.500 C 221.707 445.800,212.892 461.024,204.117 476.331 C 195.341 491.637,188.009 503.787,187.823 503.331 C 187.638 502.874,188.164 487.219,188.993 468.542 L 190.500 434.585 204.000 424.426 L 217.500 414.268 222.418 425.384 C 226.386 434.351,226.635 437.660,223.705 442.500 M185.267 475.175 C 184.384 495.621,182.248 514.859,180.519 517.925 C 177.792 522.761,176.316 521.113,169.385 505.500 C 159.524 483.287,157.313 470.758,161.780 462.411 C 164.216 457.860,164.259 456.000,161.929 456.000 C 160.123 456.000,159.480 454.650,160.500 453.000 C 161.520 451.350,164.765 450.000,167.712 450.000 C 170.659 450.000,175.514 447.300,178.500 444.000 C 181.486 440.700,184.592 438.000,185.401 438.000 C 186.211 438.000,186.150 454.729,185.267 475.175 M288.709 474.750 C 292.793 487.538,295.466 498.000,294.650 498.000 C 293.833 498.000,284.519 490.409,273.952 481.131 C 263.384 471.853,254.114 464.886,253.352 465.648 C 251.954 467.046,277.362 489.649,289.744 498.024 L 296.432 502.548 280.966 519.794 C 265.779 536.730,265.210 537.041,249.425 537.021 C 234.307 537.001,233.440 536.598,234.872 530.250 C 251.492 456.547,252.678 453.002,260.737 452.954 C 265.006 452.929,270.514 451.635,272.975 450.079 C 279.048 446.240,280.163 447.989,288.709 474.750 M305.772 531.750 C 305.966 536.211,303.199 537.000,287.363 537.000 L 268.726 537.000 283.573 521.926 L 298.420 506.852 301.982 516.676 C 303.941 522.079,305.646 528.863,305.772 531.750 M158.888 553.686 C 150.354 567.814,144.025 580.025,144.822 580.822 C 145.619 581.619,152.750 571.072,160.669 557.385 C 168.589 543.698,175.517 531.924,176.065 531.219 C 176.613 530.514,179.148 532.539,181.696 535.719 C 186.129 541.247,186.188 541.205,183.060 534.750 C 181.261 531.038,178.577 528.000,177.096 528.000 C 175.615 528.000,167.421 539.559,158.888 553.686 M310.803 547.640 C 311.858 551.842,312.221 555.711,311.610 556.238 C 310.327 557.347,218.242 603.000,217.290 603.000 C 216.942 603.000,218.451 596.588,220.643 588.750 C 222.836 580.913,226.159 566.738,228.028 557.250 L 231.425 540.000 270.156 540.000 L 308.886 540.000 310.803 547.640 M385.652 601.707 C 364.286 610.666,345.386 619.472,343.652 621.276 C 341.918 623.080,345.225 622.540,351.000 620.076 C 356.775 617.611,376.309 609.315,394.409 601.638 C 412.509 593.962,427.922 587.078,428.659 586.341 C 432.118 582.882,421.517 586.670,385.652 601.707 " stroke="none" fill="#222222" fill-rule="evenodd"/></svg>