<svg id="Layer_1" data-name="Layer 1" xmlns="http://www.w3.org/2000/svg" width="415.4069" height="444.0934" viewBox="0 0 415.4069 444.0934"><title>crack-11</title><path d="M376.6188,477.5637c-2.7119-.9811-4.8482-2.8-7.089-4.4511-.3421-.2521-.6167-.5937-.9384-.8757-6.9616-6.1028-5.6773-4.24-8.5788-13.71-.5941-1.9391-1.1276-3.8967-1.7661-6.1133-4.5431,1.2487-8.8654,2.2858-13.0877,3.6359a14.6792,14.6792,0,0,0-10.2543,10.28,12.9635,12.9635,0,0,1-.7656,1.9021c-.1.2112-.36.3468-.5531.5227-.962-.5008-.7234-1.3544-.49-2.0223,1.7715-5.0639,4.2063-9.6916,9.7048-11.5159,4.216-1.3988,8.5563-2.423,12.8424-3.61,1.0594-.2934,2.1229-.5721,3.3893-.9125-.3584-1.9366-.7589-3.7523-1.0186-5.5879-.3717-2.6265-.7769-5.2609-.9069-7.9047a4.053,4.053,0,0,0-2.4956-3.8288c-1.3143-.623-2.6595-1.1835-3.9558-1.8414-.8613-.4372-1.66-.9971-2.8673-1.7341a5.1439,5.1439,0,0,1,3.9186.1267,11.74,11.74,0,0,0,3.2276.62,4.2191,4.2191,0,0,0,4.247-4.2506,12.2657,12.2657,0,0,0-.08-1.5363c-.2218-3.1014-.1238-3.353,2.8453-4.62a17.8081,17.8081,0,0,0,7.3021-5.4493c1.1471-1.4586,3.0653-2.4072,4.7884-3.2873a9.0307,9.0307,0,0,0,4.1052-3.2945,7.4942,7.4942,0,0,1,2.6152-1.9307c.65-.4017,1.4282-.5951,2.0865-.9866,1.2892-.7668,1.4372-1.3172.9225-2.7691a11.1348,11.1348,0,0,0-3.7635-5.11,16.5838,16.5838,0,0,1-6.1932-8.8779,6.1651,6.1651,0,0,0-2.7064-3.61,6.7493,6.7493,0,0,1-1.9884-2.2838,3.63,3.63,0,0,0-3.6069-1.9663c-1.3648.0773-2.7262.2392-4.0848.4-2.919.3456-4.0881.2157-5.7019-.7117.3573-1.1583,1.3522-1.1343,2.2592-1.1742,1.54-.0678,3.09.0164,4.6217-.12,2.9848-.265,3.7713-1.0992,3.6019-4.1147a59.5964,59.5964,0,0,0-4.2855-19.2067c-1.6074-3.9593-3.1453-7.9506-4.5791-11.9758-1.2774-3.5861-3.1624-6.6682-6.5317-8.5968-4.2081-2.4087-8.6393-2.4143-13.1415-.9386a3.3,3.3,0,0,0-1.2541.8c-2.0261,2.04-2.448,2.2975-6.076,3.049.79-.6328,1.5434-1.3189,2.3765-1.8886,2.6945-1.8424,3.0806-3.9227,1.087-6.4746-.8677-1.1106-1.8377-2.1412-2.7612-3.2082l.3911-.5419a12.3093,12.3093,0,0,1,1.8508.9081c.9763.692,1.8624,1.51,2.8133,2.24,3.2488,2.4939,7.4518,1.2732,8.629-2.6555a47.9787,47.9787,0,0,0,1.3824-7.043,74.8952,74.8952,0,0,1,4.06-16.9446,6.1847,6.1847,0,0,0,.2212-1.1953c-.2419-.1017-.4169-.2493-.5267-.2108-6.4065,2.25-10.9956-1.1889-15.4694-4.9531a7.9735,7.9735,0,0,1-1.1593-1.37,3.5907,3.5907,0,0,0-4.0378-1.562c-4.0611,1.109-7.5684-.4831-11.0306-2.21a20.0433,20.0433,0,0,1-3.4205-2.2614,5.3476,5.3476,0,0,1-1.368-1.8069c-.3259-.6569-.1426-.7952,1.1432-1.2792a18.9569,18.9569,0,0,0,2.2942,3.5751c1.7566,1.7425,2.8474,1.4807,4.227-.6225a7.3168,7.3168,0,0,1,.57-.66c.1779.21.3956.3511.4344.5308.3415,1.5815.8152,3.036,2.8095,3.09,2.2832.0614,4.5356-.076,5.87-2.32a7.1457,7.1457,0,0,0,.9544-2.6392c.8843-6.7566,1.0378-13.5481-.8763-20.1267-1.0407-3.5767-2.9106-6.9146-4.4474-10.3418a7.7264,7.7264,0,0,0-1.1415-1.7c-1.4045-1.6986-2.4749-1.8126-4.0637-.2353-1.27,1.261-2.3141,2.7471-3.5423,4.0545a57.3224,57.3224,0,0,1-4.7294,4.688,11.87,11.87,0,0,1-3.7464,2.0961c-1.7163.5848-2.67,1.634-2.5765,3.36a21.9937,21.9937,0,0,0,.8081,5.5267c2.188,6.7823,2.186,13.6068.9878,20.5474a36.4941,36.4941,0,0,0-.4589,7.1359c.118,4.45.4852,8.8937.7025,13.3422.0748,1.5308.0119,3.0683.0119,5.2232-.5628-.84-.9251-1.1636-1.0184-1.5522-1.3814-5.7539-2.5714-11.5182-1.5907-17.5053a10.1508,10.1508,0,0,0-.2966-3.5274,8.1009,8.1009,0,0,1,.2555-5.0306,16.9242,16.9242,0,0,0,1.0584-9.08,56.797,56.797,0,0,0-3.42-13.4061,5.7553,5.7553,0,0,0-4.1831-3.8361,80.3413,80.3413,0,0,1-12.6642-5.5508,58.2117,58.2117,0,0,1-13.45-8.9163,3.9147,3.9147,0,0,0-4.5312-.7759c-1.48.6685-2.9762,1.3175-4.3962,2.1005-1.7559.9684-2.11,1.861-1.7683,3.8143.2063,1.1785.4593,2.3507.6166,3.5356a9.07,9.07,0,0,1-1.1966,5.93c-.8011,1.354-1.7908,1.5182-2.9685.4785a12.6084,12.6084,0,0,1-3.5292-6.1312c1.9348,1.4526,2.4114,3.6828,4.7763,4.3822a6.3267,6.3267,0,0,0,.4437-2.0977,28.9623,28.9623,0,0,0-6.6379-14.24,7.57,7.57,0,0,0-1.8843-1.3146c-3.2652-2-4.38-5.11-3.2078-8.8232a25.0592,25.0592,0,0,0,1.0724-4.2011,5.7939,5.7939,0,0,0-3.0727-6.0255c-.73-.444-1.5449-.76-2.2385-1.2517-1.3828-.98-2.7073-2.0412-4.0581-3.0661-.9541-.7239-1.8824-1.4865-2.8727-2.1572a184.7345,184.7345,0,0,1-22.8682-18.2352,26.1856,26.1856,0,0,1-2.7635-3.0286,3.1753,3.1753,0,0,0-3.617-1.1975c-2.8373.6762-5.0229,2.1045-6.15,4.9067-1.5651,3.89-3.15,7.7721-4.7181,11.6611-1.2144,3.0125-2.3144,6.065-4.3868,8.6654a4.2813,4.2813,0,0,0-.7647,2.6347,66.7026,66.7026,0,0,0,.7419,10.2109,39.6633,39.6633,0,0,0,3.9981,11.8788c1.3594,2.4366,1.4635,4.6424-.5959,6.7981a5.2689,5.2689,0,0,0-1.2721,4.2733,14.6618,14.6618,0,0,1-.4735,4.817,9.7127,9.7127,0,0,0,1.1981,7.6325c.4764.8483.8136,1.775,1.3564,2.9817A3.121,3.121,0,0,1,194.822,273.3a23.8,23.8,0,0,1-1.0341-4.2285,24.23,24.23,0,0,1,.1927-9.7,12.1278,12.1278,0,0,1,1.91-4.1177,3.5756,3.5756,0,0,0,.5882-3.8174c-1.4591-3.4508-2.9735-6.8782-4.5629-10.5387-1.0517.85-.7464,1.7588-.8545,2.5063-.5629,3.8932-1.04,7.7994-1.6572,11.6837a17.3132,17.3132,0,0,1-1.1227,3.0955c-1.1855-.7264-.745-1.5127-.5771-2.2007a47.7025,47.7025,0,0,0,1.5255-13.4877,54.7557,54.7557,0,0,0-.8615-8.1594c-.7518-3.7937-2.4282-4.8135-6.2116-4.2856-.6785.0946-1.3564.1956-2.037.2718a3.0459,3.0459,0,0,1-3.4252-1.6956c-.9622-2.0457-2.5594-2.2989-4.5-1.769a13.0511,13.0511,0,0,1-6.8505.093,7.37,7.37,0,0,1-5.0678-3.6074,4.3094,4.3094,0,0,0-4.05-2.3138c2.0539-.8992,2.9272-.8793,4.1275.7071,3.6817,4.8661,8.6423,4.4424,13.7557,3.54,1.1885-.21,1.5627-.9545,1.1567-2.0712-.3212-.8837-.6465-1.77-1.0413-2.6221a48.41,48.41,0,0,1-3.7164-13.3088,26.5609,26.5609,0,0,1-.029-3.8986l.6911-.0838a24.3092,24.3092,0,0,1,.7183,3.0252,50.8152,50.8152,0,0,0,5.584,18.042c1.4921,2.8675,2.9228,3.3032,5.7543,1.6112a14.4948,14.4948,0,0,0,5.7012-6.7867,68.9684,68.9684,0,0,0,2.9654-8.7152c.6058-2.0817,1.1321-4.1085,2.9888-5.5122a3.4892,3.4892,0,0,0,1.12-1.687c1.0163-3.3485,3.4138-5.45,6.2586-7.18.4385-.2666.8754-.5366,1.3226-.7881,4.225-2.3767,4.34-2.6454,3.4884-7.3051a8.7007,8.7007,0,0,1-.2708-3.0537c.4555-2.4-.2048-4.53-.9359-6.76a11.9237,11.9237,0,0,1-.3258-4.5116,8.4243,8.4243,0,0,1,1.0428-3.4162c1.7352-3.0561,1.5278-6.032.0825-9.0906-2.4869-5.2627-4.92-10.5508-7.4076-15.8132a15.9082,15.9082,0,0,0-1.3626-2.171,2.2376,2.2376,0,0,0-2.8614-1.0282c-1.9806.7226-3.5015-.1764-4.805-1.5571a8.3236,8.3236,0,0,1-1.349-1.866c-2.7386-5.3169-7.1955-9.1112-11.5959-12.9036-1.7235-1.4854-3.9487-2.3751-5.8881-3.6252a192.0382,192.0382,0,0,1-17.2306-12.5358c-3.9738-3.236-8.3024-6.0476-12.5619-8.9161a12.3823,12.3823,0,0,1-5.0742-6.5609c-.6182-1.8678-1.2234-3.7423-1.922-5.58-.7839-2.0624-1.3715-2.4087-3.4806-1.87a7.6387,7.6387,0,0,1-6.3455-1.2249c-2.3577-1.5488-4.6749-3.16-7.1767-4.8568a30.3668,30.3668,0,0,0-6.7778,7.1844c2.1037,2.26,4.1388,4.426,6.1505,6.6134a38.8479,38.8479,0,0,1,5.2931,7.1934c1.5815,2.7895,3.916,5.16,5.9814,7.664a43.0528,43.0528,0,0,1,3.9861,5.1364,5.52,5.52,0,0,1-1.3382-.7463c-2.1083-2.1225-4.18-4.2816-6.2491-6.4429-3.37-3.5208-6.78-7.0056-10.0747-10.5965a89.55,89.55,0,0,1-6.2808-7.4415A83.7729,83.7729,0,0,0,95.5926,75.1443c-.7531-.6494-1.62-1.1664-2.4008-1.7206C91.9242,74.271,91.8505,75.4,91.69,76.49c-.2971,2.0181-.9541,3.7443-2.9255,4.832a6.697,6.697,0,0,0-2.0406,2.2636c-1.4609,2.2216-1.33,3.2647.4309,5.2571q1.8693,2.1154,3.7061,4.26c.1467.1716.1789.4413.0124.9412-1.0759-.9789-2.1571-1.9522-3.2253-2.9395-.4394-.4061-.8316-.864-1.2779-1.2616-2.3211-2.0675-2.9915-2.1488-5.6989-.7234-.9088.4785-1.7856,1.0313-2.7285,1.4274a18.686,18.686,0,0,1-2.4406.6628,2.2086,2.2086,0,0,1,1.1491-2.5828,9.5045,9.5045,0,0,1,2.035-1.084,13.0441,13.0441,0,0,0,6.6427-5.4107,8.6463,8.6463,0,0,1,2.124-2.1909,12.9832,12.9832,0,0,0,4.772-9.0434c.3062-2.5264-.7178-4.09-3.0816-4.9876a7.7943,7.7943,0,0,0-2.7444-.5841c-3.1619.0248-6.3244.1465-9.4832.3014a4.2972,4.2972,0,0,0-4.0328,3.0638c-.03.08-.06.16-.0948.2384-1.8424,4.1075-2.2205,4.2269-5.77,1.3706a29.9561,29.9561,0,0,1-4.3554-4.34c2.8446,1.1372,4.6517,3.8376,7.6452,5.2536.28-1.0529.5338-1.8407.6944-2.6472a5.3519,5.3519,0,0,1,3.1663-4.0871c.1559-.0706.3055-.155.4576-.2338,3.3958-1.76,3.6553-3.3007.9511-5.9664-.6665-.6571-1.47-1.1726-2.1885-1.7795-2.0206-1.7069-3.9828-3.4869-6.0586-5.1231a43.37,43.37,0,0,0-4.8564-3.3479c-5.62-3.3-11.1295-6.73-15.9265-11.2147a30.425,30.425,0,0,0-4.25-2.8336c.4293-.812,1.2806-.4675,1.9374-.2248a27.0256,27.0256,0,0,1,4.4594,1.9417c8.5386,5.0678,17.1053,10.0953,25.5,15.3943,2.4818,1.5666,4.4463,3.958,6.6311,5.9894a39.3856,39.3856,0,0,0,3.3323,3.1471c1.0707.7827,1.908.5124,2.5646-.6444a8.6172,8.6172,0,0,0,.9539-2.631,17.9635,17.9635,0,0,0-5.37-17.1111,12.402,12.402,0,0,0-8.9134-3.39c-.3785.0015-.7569.0519-1.3757.0972.5361-1.5319,1.5835-1.4328,2.5692-1.3606a15.7836,15.7836,0,0,1,6.599,1.9375c2.2625,1.2544,2.77,1.21,4.2022-.98a4.9876,4.9876,0,0,1,6.3905-2.2484c1.7893.5845,3.6147,1.0594,5.3975,1.6618a4.593,4.593,0,0,1,2.178,1.5775c-.5054.0853-1.0675.3562-1.506.2223a34.2163,34.2163,0,0,1-4.5555-1.6623,5.5042,5.5042,0,0,0-7.7533,3.356,2.9,2.9,0,0,0,.7418,2.2473c3.3891,3.6506,4.6559,8.1112,5.0564,12.8938a12.0723,12.0723,0,0,1-.2885,4.07,3.4567,3.4567,0,0,0,.783,3.555c1.5968,1.6641,3.2442,3.2931,4.994,4.7924a4.796,4.796,0,0,0,4.8576.678c1.8794-.6189,2.5692-1.6261,2.6249-3.631.03-1.0764.1065-2.1516.1923-3.8147.743.8025,1.2409,1.09,1.3229,1.4682.692,3.189.6918,6.16-3.1214,7.2746a4.267,4.267,0,0,0-1.358.7051c-1.281.98-1.3313,2.1348.0847,2.798,2.0352.9533,3.0336,2.7213,4.0525,4.4809.9849,1.7008,1.7624,3.5207,2.6683,5.2688.3714.7166.8409,1.3823,1.495,2.4428.68-1.204,1.1263-1.9941,1.5733-2.7836a6.6361,6.6361,0,0,1,6.8481-3.5395,15.4811,15.4811,0,0,1,6.1864,2.3361,17.0652,17.0652,0,0,0,4.4559,1.8459c2.57.56,3.9566-.88,3.5062-3.5074a13.4036,13.4036,0,0,0-6.1388-9.6513q-.3271-.2037-.65-.4142c-.9828-.64-1.7709-1.4292-1.5278-2.7153.229-1.2115,1.28-1.493,2.2839-1.7753a2.4411,2.4411,0,0,1,.4909-.1477c3.1971-.1759,3.5281-3.0724,1.7038-5.2487-.5494-.6553-1.1741-1.2468-1.7349-1.8931a17.8073,17.8073,0,0,1-2.23-3.0331c1.3457.4,2.1575,1.4763,3.1378,2.3112.78.6644,1.4644,1.4408,2.2374,2.1144,1.5972,1.3919,3.1517,2.5893,5.4931,1.1986,1.0929-.6491,2.48-.28,3.8639.8159-.6633.2321-1.08.36-1.4834.522a5.5137,5.5137,0,0,0-3.4145,6.0005,29.2528,29.2528,0,0,0,1.7362,6.4156c2.3738,6.0539,4.9123,12.0431,7.3763,18.0618a5.6,5.6,0,0,0,2.4347,2.8406c3.0944,1.831,6.1256,3.77,9.1589,5.7031a23.2,23.2,0,0,1,8.8455,9.4184,15.93,15.93,0,0,0,6.2814,6.2883,32.316,32.316,0,0,0,12.0737,4.8488c3.8842.6144,6.2415,2.6851,7.7721,6.2265,1.3878,3.2111,3.1267,6.2756,4.807,9.3522.6022,1.1027,1.3292,2.4849,2.76,2.4124,1.493-.0757,1.7781-1.6332,2.3011-2.7814.5676-1.2462,1.0729-2.5294,1.7467-3.7162a2.1143,2.1143,0,0,1,3.0341-1.0689,16.4981,16.4981,0,0,1,2.2317,1.2505,2.1222,2.1222,0,0,1,1.04,2.8577c-2.355,5.1216-1.0291,10.1073.5858,15.0051,1.4988,4.5455,3.3479,8.9752,5.0388,13.4574a24.689,24.689,0,0,1,1.0363,2.8952c.3117,1.3009.2708,2.5193-1.1338,3.3436a3.82,3.82,0,0,0-1.8464,3.7167c.2172,4.9022.8486,9.7066,3.0842,14.1816a15.6805,15.6805,0,0,1,1.5246,4.0631,17.19,17.19,0,0,0,7.1426,10.89c1.7816,1.3306,3.6618,2.5339,5.5358,3.7348,3.8342,2.4571,7.5462,5.0509,10.3912,8.6888a2.9229,2.9229,0,0,0,.3685.3579c4.3255,3.8694,8.9238,7.3933,12.8063,11.8093,2.59,2.9464,6.4434,4.5555,10.3279,5.4368a12.3925,12.3925,0,0,1,7.5856,5.2666c1.59,2.2285,3.1094,4.5157,4.8246,6.6441a39.8569,39.8569,0,0,0,4.2769,4.41,8.3421,8.3421,0,0,0,2.6549,1.5182c2.649.9958,3.6576.1447,3.33-2.64a12.0978,12.0978,0,0,1,.0656-1.8745c1.554-.0749,1.8818.92,2.2407,1.7257.73,1.6395,1.2788,3.3611,2.0248,4.9927a31.052,31.052,0,0,0,2.7012,5.2215,7.8152,7.8152,0,0,0,11.9207.6623,3.9078,3.9078,0,0,0,.7791-2.3455,27.229,27.229,0,0,0-.3417-3.5705c-.0886-.9067-.1471-1.8165-.2238-2.7864,5.2247.8646,9.4792-.9515,13.4908-3.567a4.9454,4.9454,0,0,0,1.5054-1.7111c2.1734-3.8965,5.3984-6.8185,8.8126-9.5451,1.8082-1.444,2.3434-1.4527,3.938.1949,4.8291,4.99,10.6983,8.5149,16.5671,12.0543a22.6528,22.6528,0,0,0,2.0273,1.1061c2.32,1.0934,2.7016.999,4.1944-1.1889.6743-.9884,1.1722-2.0993,1.866-3.0718a23.1684,23.1684,0,0,1,1.9333-2.1316l.6271.28a6.7954,6.7954,0,0,1-.1574,2.0766c-3.2021,7.78-9.5739,7.9441-14.4635,3.4467-.529-.4866-1.2887-1.1877-1.8379-1.1047-2.1966.3322-3.78-.751-5.4166-1.8746a5.8243,5.8243,0,0,0-6.3188-.3528c-2.4209,1.2432-3.0582,2.8073-1.9084,5.27,1.4818,3.1735,3.1879,6.2425,4.8079,9.3509.6724,1.29,1.3471,2.58,2.0635,3.8464a20.5215,20.5215,0,0,1,1.9494,15.1654c-.6947,3.0882-1.221,6.2148-1.9457,9.2952a2.6709,2.6709,0,0,0,.76,2.7552c2.0227,2.09,3.922,4.3056,6.0159,6.32a12.9084,12.9084,0,0,0,6.2145,3.4529c1.67.3657,3.3489.7193,4.9836,1.2116,2.1751.6552,2.3769.9477,1.9735,3.1212-.4676,2.52-1.0878,5.0118-1.6457,7.5149-1.1912,5.3453-2.5564,10.6611-2.7453,16.1763-.0205.5992-.0042,1.2-.0129,1.7992a1.9711,1.9711,0,0,0,1.92,2.24,18.547,18.547,0,0,1,3.44.9819,7.2044,7.2044,0,0,1,3.7238,3.0067,22.4708,22.4708,0,0,0,2.1063,2.9108c1.1064,1.2573,1.8878,1.1671,2.8348-.2664.8479-1.2835,1.4793-2.731,2.4429-3.913,2.7272-3.3454,6.89-2.509,8.6259,1.7486-1.167.3966-1.6984-.4178-2.2883-1.1146-1.287-1.52-2.0022-1.6823-3.6686-.6264a8.2833,8.2833,0,0,0-3.4525,4.93,33.5375,33.5375,0,0,1-1.518,3.1375,3.4549,3.4549,0,0,0-.3374,1.8808,47.2405,47.2405,0,0,0,1.3953,5.2007,59.2184,59.2184,0,0,1,3.1981,16.5812A23.95,23.95,0,0,0,373.97,377.844a15.0448,15.0448,0,0,0,1.6489,1.8964,3.26,3.26,0,0,0,1.1387-3.8655,9.6527,9.6527,0,0,1-.0616-4.9224c1.1554.6266,1.1214,1.5561,1.3674,2.3,1.1661,3.5255,1.17,3.5138,4.818,3.6543,1.0516.0406,2.2523-.2452,3.116,1.0091-1.7949,2.1571-4.6485,1.2855-6.9092,2.4693.2829.5871.5243,1.206.8609,1.7679,2.5075,4.1853,5.0033,8.3782,7.5674,12.5288a8.39,8.39,0,0,0,5.3413,4.0549c2.7134.6757,5.2358,2.0821,7.9011,2.9962,4.3455,1.49,5.6116.865,7.0025-3.5171.8466-2.6674,1.829-5.4168.0357-8.1427,2.536.08,3.4641,1.5769,3.1491,5.1308l3.97-1.2732a9.6469,9.6469,0,0,1-.7054,2.0648c-1.0887,1.535-2.2382,3.0282-3.4008,4.5089-.8462,1.0776-1.7835,2.0839-2.62,3.1684-2.866,3.7151-2.9,6.2746-.0821,9.9683a34.1155,34.1155,0,0,0,11.3557,9.4565,7.5858,7.5858,0,0,0,3.6678.9171,4.26,4.26,0,0,1,3.6115,1.5644c3.9129,4.6133,8.7959,8.1226,13.3939,11.9529,3.5592,2.9651,6.9357,6.0228,9.4767,10.0109a30.3257,30.3257,0,0,0,5.4224,5.7734,6.8968,6.8968,0,0,1,2.664,5.56c-.0484,1.5313-.0092,3.0655-.0092,4.8664-.2923-.3817-.4925-.5367-.55-.7333a32.1324,32.1324,0,0,0-7.5406-12.6883c-2.886-3.1656-5.7625-6.3431-9.3759-8.718-2.4456-1.6074-2.9028-1.5307-5.2662.8145a27.339,27.339,0,0,1-2.0775-1.9907,27.2871,27.2871,0,0,0-10.0774-7.76c-1.9973-.8458-2.5537-.7643-4.0266.8833a31.4115,31.4115,0,0,0-2.3617,3.0409,8.1927,8.1927,0,0,0,4.1218,12.2092,73.8566,73.8566,0,0,0,7.2791,1.5154c.5512.1117,1.1012.23,2.0219.422a11.4218,11.4218,0,0,1-1.6142,1.2593c-4.2367,2.0725-5.85,5.8669-6.472,10.1676-.36,2.49-.27,5.0452-.3886,7.7a6.4951,6.4951,0,0,1-1.5252-5c.1586-6.8387-3.25-12.1031-7.314-17.0606-1.9255-2.349-3.6217-2.54-6.4-1.3024a15.03,15.03,0,0,0-5.4767,4.154,7.4173,7.4173,0,0,0-2.05,5.1173,3.1765,3.1765,0,0,1-1.696,3.2311,9.1574,9.1574,0,0,0-4.6793,4.8817,2.02,2.02,0,0,1-.7608,1.0166,2.9472,2.9472,0,0,1-.2-3.293c1.5248-3.7209,3.1-7.4214,4.6749-11.1213.4689-1.1012.9666-2.1931,1.5128-3.2576a2.9816,2.9816,0,0,1,3.2866-1.8954,7.3787,7.3787,0,0,0,5.9228-1.9109c1.3192-1.0882,2.7529-2.0519,3.9783-3.2343a5.8982,5.8982,0,0,0,1.77-2.6906c.6645-3.0867,1.1255-6.2229,1.5336-9.3571a5.5911,5.5911,0,0,0-1.847-4.8867,74.7051,74.7051,0,0,0-7.3958-6.2961c-1.7305-1.2308-2.7283-2.486-2.4755-4.625a11.7234,11.7234,0,0,0-.0035-1.7983,5.4152,5.4152,0,0,0-3.0691-4.7119c-.6675-.3733-1.4232-.5858-2.1282-.8952a5.6586,5.6586,0,0,0-6.63,1.0586,82.5618,82.5618,0,0,1-6.6885,5.61,73.194,73.194,0,0,0-8.4374,7.0351c-1.26,1.2485-3.2068,1.8779-4.9338,2.5548a30.3032,30.3032,0,0,1-4.2363,1.0133,2.9493,2.9493,0,0,0-2.5459,3.062c-.0533,1.5389-.2217,3.0758-.3879,4.6083-.1977,1.8227-.5693,3.5573-2.3769,4.5741a1.8982,1.8982,0,0,0-.8224,2.4636c1.284,3.7476.9747,7.6226.9064,11.4611a34.59,34.59,0,0,0,2.764,14.2684,15.2017,15.2017,0,0,0,5.3282,6.73A23.5413,23.5413,0,0,1,376.6188,477.5637ZM268.55,244.1577c-.6929-1.9963-1.4784-4.4184-2.3954-6.79a2.9547,2.9547,0,0,0-1.3542-1.477q-3.9218-1.8508-7.9452-3.482c-1.163-.47-2.0973.056-2.8906,1.04a6.5771,6.5771,0,0,0-1.2354,5.5791,15.3622,15.3622,0,0,0,5.7731,9.6888c2.7828,2.1524,7.98.89,9.5062-2.294A13.3705,13.3705,0,0,0,268.55,244.1577Z" transform="translate(-42.2966 -33.4702)"/><path d="M286.1974,325.46a14.9632,14.9632,0,0,0,9.3721,4.87,3.2182,3.2182,0,0,0,3.4833-1.5155,16.4538,16.4538,0,0,0,2.8243-7.3449c.094-.7269.2553-1.4451.4853-2.7189a6.4582,6.4582,0,0,1,.9758,4.5337c-.4191,5.8685,1.4359,11.1286,4.1722,16.1619a11.8222,11.8222,0,0,0,1.7545,2.5246c5.3955,5.6545,9.6893,12.169,14.4,18.357,1.4369,1.8873,2.8638,3.7822,4.653,6.1464l-3.4833-.639c-.7655,1.1565-.3466,2.2964-.02,3.4067.8269,2.8126,2.7284,4.8979,4.7486,6.894a7.9707,7.9707,0,0,1,2.3961,3.3723,5.9368,5.9368,0,0,1-3.6408-2.2153,53.2425,53.2425,0,0,1-7.1214-11.2435c-1.838-3.5748-3.644-7.166-5.4889-10.7372-.3518-.6812-.8346-1.2934-1.23-1.9538a3.24,3.24,0,0,0-3.7019-1.6031,25.43,25.43,0,0,0-9.1734,3.8364c-1.7351,1.1009-2,3.0921-2.1767,5a151.2114,151.2114,0,0,0-.62,20.2569,2.1308,2.1308,0,0,1-.2084,1.1607c-2.389-3.77-4.1806-7.5465-2.6277-12.2066a19.2658,19.2658,0,0,0,.924-6.5371,7.2758,7.2758,0,0,0-5.4732-7.2512,9.0906,9.0906,0,0,1-3.84-2.3846c-2.4165-2.3853-5.418-1.5222-8.2373-.8553-2.4529.58-3.6354,2.3931-3.9658,4.8108-.07.5079-.0878,1.0241-.1078,1.5373a10.1,10.1,0,0,1-2.2944,6.4109c-1.8627,2.1512-1.8887,4.473-1.0591,6.9678a80.2116,80.2116,0,0,1,2.4165,8.1332c-.7684-1.0581-1.546-2.11-2.3024-3.1765-.6435-.9073-1.2375-1.85-1.8971-2.7454-2.06-2.7949-2.2459-2.7856-5.4519-1.2771-1.3358.6286-2.5317,1.77-4.44,1.5447a4.8166,4.8166,0,0,1,.6349-1.4242,17.1049,17.1049,0,0,1,2.3573-1.9735,24.07,24.07,0,0,0,9.5784-13.8319,9.0531,9.0531,0,0,0,.2523-3.278,3.4817,3.4817,0,0,0-2.8562-3.2118,20.8747,20.8747,0,0,0-11.1435.2995c-1.1319.3228-2.28.8372-3.7029-.1148a6.0533,6.0533,0,0,1,1.2436-1.4135,46.97,46.97,0,0,1,4.3383-2.1957c1.5-.67,3.0537-1.2209,3.6261-3.3,1.75.7454,3.3579,1.2881,4.8278,2.086,3.2191,1.7474,6.4664,2.6016,10.0724,1.2289a7.3931,7.3931,0,0,1,7.6873,1.3863c1.0643.8582,2.2625,1.5506,3.3261,2.41a5.8,5.8,0,0,0,6.0194,1.0429c3.3581-1.2735,6.6961-2.6109,9.9832-4.0565,1.8518-.8144,2.15-1.7538,1.1418-3.4708q-2.5311-4.31-5.3133-8.47a10.9589,10.9589,0,0,0-6.6457-4.51c-1.5732-.4066-3.1184-.9235-4.6941-1.319C288.1722,330.16,286.7809,328.2052,286.1974,325.46Z" transform="translate(-42.2966 -33.4702)"/><path d="M225.4573,324.6117c.9408-.836,1.8685-1.6872,2.8252-2.5045a4.75,4.75,0,0,0,1.849-4.9712,12.35,12.35,0,0,1,.8388-7.0477A67.1317,67.1317,0,0,0,234.4,297.7471a9.0583,9.0583,0,0,1,1.7353-4.1849,3.0794,3.0794,0,0,0,.5654-3.7212q-3.61-7.7949-7.2652-15.5686a10.06,10.06,0,0,0-3.78-4.0155c-3.0342-2.0532-5.7893-4.5206-8.645-6.8348a1.5615,1.5615,0,0,1-.4987-1.3329c1.1331.5017,2.2825.97,3.3955,1.5129,1.6144.7879,3.1714,1.7,4.81,2.4294,1.7416.7752,2.1458.5331,2.7816-1.2915.9169-2.6315,1.3485-3.2032,3.5368-4.4319,0,.9835.0641,1.8041-.0106,2.6119a24.8986,24.8986,0,0,0,2.5176,13.2076c1.1774,2.4713,2.3359,4.9543,3.6118,7.3746a13.5834,13.5834,0,0,0,1.9966,2.6507,3.2388,3.2388,0,0,0,3.502.9459,28.5,28.5,0,0,0,8.8175-4.5949,3.1649,3.1649,0,0,0,1.07-3.6972,22.8266,22.8266,0,0,1-.0435-9.927c.3621-2.02.5411-4.0717.8221-6.1064.1759-1.2733.1923-1.271,1.4662-2.5081a32.3316,32.3316,0,0,1-1.3126,10.2854,9.4985,9.4985,0,0,0,.2371,7.687,6.8133,6.8133,0,0,1,.5634,2.2224c.2436,2.1429-.35,3.1756-2.2753,4.1087-.538.2607-1.1112.4477-1.661.6852-2.1225.9172-2.3025,1.4165-1.1389,3.4875a29.0183,29.0183,0,0,0,7.4412,8.4014c1.539,1.2271,3.1494,2.3667,4.6579,3.6291a6.1266,6.1266,0,0,1,2.0341,2.2566c.811,2.3712,2.7333,3.4276,4.6783,4.4858a19.9578,19.9578,0,0,0,3.5372,1.4818c2.981.9371,4.363.3485,5.9643-2.3758a24.7108,24.7108,0,0,1,1.5992-2.6217,2.1861,2.1861,0,0,1,1.8471-.5841,21.5724,21.5724,0,0,1-1.2731,2.5871c-.8487,1.2834-1.866,2.4541-2.74,3.722-1.1537,1.6731-.9908,2.2227.7116,3.2591a16.0113,16.0113,0,0,1,3.0011,2.2684c-1.38.5169-2.4589-.1294-3.5525-.6014-2.0405-.88-4.033-1.8781-6.0974-2.6959-2.1385-.8472-2.6634-.5779-3.483,1.5531-.6756,1.7566-1.2535,3.5507-1.9263,5.3084a4.1162,4.1162,0,0,1-1.2755,1.7683c-.0511-3.9185,1.2522-7.4057,3.3365-10.9919-2.5047-2.0383-4.9813-4.1216-7.5307-6.1115-3.3065-2.5809-6.6237-5.153-10.0244-7.6068-3.07-2.215-3.739-2.2231-6.1491.7322a83.6524,83.6524,0,0,0-5.9362,8.6468,8.5409,8.5409,0,0,0-1.1311,3.6344,6.0011,6.0011,0,0,1-2.9984,4.78c-2.3157,1.4991-2.4211,1.9351-1.74,4.4283.8962,3.28-.1264,5.34-3.2875,6.4081a27.4243,27.4243,0,0,1-3.1948.6877Z" transform="translate(-42.2966 -33.4702)"/><path d="M310.5355,340.404c3.3746.4127,5.7455-1.0731,8.1554-2.5277,1.7407-1.0507,3.561-1.9721,5.3688-2.9069a1.7594,1.7594,0,0,1,1.615.0714,24.7469,24.7469,0,0,1-2.8817,2.2834,71.3568,71.3568,0,0,1-7.1594,3.7987A4.5687,4.5687,0,0,1,310.5355,340.404Z" transform="translate(-42.2966 -33.4702)"/><path d="M328.61,344.8926c-1.2192-1.4006-1.1462-1.9883.6308-5.076C330.0205,343.1845,329.9819,343.4953,328.61,344.8926Z" transform="translate(-42.2966 -33.4702)"/></svg>