<svg id="Layer_1" data-name="Layer 1" xmlns="http://www.w3.org/2000/svg" width="504.9541" height="499.5823" viewBox="0 0 504.9541 499.5823"><title>lg-logo</title><path d="M499.7582,429.2457l-147.32,62.2054c-.7281-.9037-1.3811-1.6733-1.99-2.4753q-34.53-45.5193-69.0808-91.0224a6.9423,6.9423,0,0,1-1.5024-5.3245c1.0484-10.7537,1.9044-21.5254,2.8261-32.291.6435-7.5154,1.32-15.0285,1.896-22.549a5.3521,5.3521,0,0,1,1.9107-3.3615q14.17-14.8558,28.33-29.72,10.1174-10.6149,20.2214-21.2419a26.5755,26.5755,0,0,0,1.9852-2.6753c1.5247.8631,2.4263,1.34,3.2939,1.87q78.4854,47.94,156.9925,95.8459a4.4352,4.4352,0,0,1,2.4844,4.3666c-.0906,14.4767-.0478,28.9541-.0478,43.4313Z" transform="translate(4.9541 0)"/><path d="M448.9426,59.6292c-3.8557-19.9769-7.63-39.53-11.4558-59.354h62.3075c.0581,1.1287.1552,2.1393.1554,3.15q.0118,50.6616.05,101.3233a4.8585,4.8585,0,0,1-2.3981,4.5528q-78.2762,54.2766-156.4734,108.666c-.6764.47-1.3824.8979-2.2224,1.441-.6069-.6511-1.1864-1.2108-1.6955-1.8279q-25.05-30.3639-50.1337-60.6995a5.8249,5.8249,0,0,1-1.3154-6.1289c5.6726-19.0144,11.1937-38.0734,16.763-57.1181.29-.9933.5911-1.9835.9986-3.349Z" transform="translate(4.9541 0)"/><path d="M106.8473,349.6989c2.1953-1.3662,4.0789-2.55,5.9728-3.7152q30.4545-18.73,60.8909-37.494a6.1946,6.1946,0,0,1,5.5838-.7567q40.5291,12.301,81.1044,24.4262c.7988.24,1.5873.52,2.6706.8769-.2641,3.8025-.4945,7.576-.7933,11.3433-1.1442,14.4317-2.2671,28.8658-3.5078,43.288a9.6308,9.6308,0,0,0,1.8456,6.7937Q295.6467,444.96,330.5464,495.566c.7362,1.0655,1.4629,2.1386,2.6069,3.8122-1.71.0613-2.8815.14-4.0531.14q-43.4053.01-86.8108.0054c-8.88,0-17.76-.0713-26.6379.0538a4.765,4.765,0,0,1-4.4193-2.3715q-51.3227-72.527-102.73-144.9842C108.0026,351.5175,107.5506,350.7746,106.8473,349.6989Z" transform="translate(4.9541 0)"/><path d="M278.1352.0482c1.1055,3.523,2.1612,6.828,3.18,10.1437,5.6233,18.3032,11.21,36.6172,16.8947,54.9022a8.94,8.94,0,0,1-.0475,5.629q-15.521,50.0229-30.9435,100.0751c-2.6925,8.7044-5.4681,17.3843-8.2119,26.0735-.2452.7764-.5366,1.5389-.9745,2.7862-1.2054-1.1569-2.204-2.1187-3.2062-3.0769-24.6322-23.5532-47.0207-49.1363-70.1045-74.09-6.5264-7.055-12.9679-14.1855-19.545-21.1946a13.1054,13.1054,0,0,0-4.23-2.9933c-12.1443-5.2466-24.3422-10.3745-36.5211-15.5444-1.0342-.4391-2.0513-.9167-3.305-1.4789.6879-1.0642,1.2037-1.9294,1.7844-2.7506q26.856-37.98,53.6727-75.9869A5.434,5.434,0,0,1,181.7115,0q46.45.1082,92.9011.0482Z" transform="translate(4.9541 0)"/><path d="M158.1522,277.3954c-.97.8441-1.69,1.5276-2.4653,2.1375-14.7875,11.6273-29.4968,23.36-44.4209,34.8035-5.12,3.9261-10.7487,7.1762-16.2007,10.6445Q46.4934,355.88-2.1092,386.7285c-.83.5273-1.7121.97-2.8449,1.6071V212.1772c2.0076-.8607,4.0021-1.6515,5.9392-2.5678,1.411-.6675,2.5753-.0385,3.7981.4727,11.6146,4.8547,23.2438,9.6738,34.8387,14.5768,5.3677,2.27,10.6257,4.81,16.0087,7.04,13.8947,5.7556,27.7711,11.565,41.7654,17.0617,20.1329,7.908,39.3676,17.7656,58.694,27.4371C156.7012,276.5032,157.2762,276.8838,158.1522,277.3954Z" transform="translate(4.9541 0)"/><path d="M-3.7508,499.3288v-3.6505c0-22.8609.0345-45.7219-.0521-68.5825-.0089-2.3516.6076-3.7048,2.7572-4.92q43.9829-24.87,87.86-49.9235c.8-.4553,1.6263-.8659,2.6821-1.4255l98.4622,128.5023Z" transform="translate(4.9541 0)"/><path d="M337.9366,235.8436c6.1176-4.2411,11.5289-8.3715,17.34-11.9609q70.9965-43.8542,142.1224-87.5331c.7231-.445,1.4883-.8328,2.57-1.4342V328.1641Z" transform="translate(4.9541 0)"/><path d="M69.3829,176.5009-3.5194,203.8462V26.99c.9378.738,1.5992,1.19,2.1818,1.7269Q22.7938,50.9492,46.9486,73.1556a7.2471,7.2471,0,0,1,2.134,4.3118q6.3919,30.9547,12.7862,61.9091,3.5934,17.3828,7.1977,34.7634C69.21,174.8337,69.2578,175.547,69.3829,176.5009Z" transform="translate(4.9541 0)"/><path d="M72.3313,95.9164c1.6864.6873,2.913,1.1642,4.1212,1.683q44.9865,19.3159,89.9569,38.6689a10.6687,10.6687,0,0,1,3.6143,2.3706q17.1586,18.7155,34.1847,37.55c.224.2467.3906.5443.8148,1.1451L160.2524,231.54c-1.0717-.3241-2.0406-.5609-2.9682-.9058-19.3394-7.1911-38.6495-14.46-58.0361-21.5246a6.59,6.59,0,0,1-4.7936-5.5959C88.3862,173.8318,82.17,144.18,75.996,114.5192c-1.029-4.9432-2.065-9.885-3.0755-14.8319C72.7022,98.6183,72.58,97.53,72.3313,95.9164Z" transform="translate(4.9541 0)"/><path d="M342.1588,257.386a120.7662,120.7662,0,0,1-17.6281,20.865,112.9565,112.9565,0,0,1-45.4178,26.6943,103.73,103.73,0,0,1-52.6105,2.4419c-30.9717-6.6862-54.4722-24.1694-72.537-49.7761.4691-.7637.8529-1.4763,1.3175-2.1323,13.0416-18.4166,29.6365-32.619,50.52-41.5418a104.6515,104.6515,0,0,1,59.4886-7.2406c28.6954,4.8124,51.6162,19.377,69.9888,41.4728,1.4628,1.7594,2.83,3.5994,4.2048,5.429C340.3577,254.7587,341.1628,255.9692,342.1588,257.386ZM277.936,223.03c.588,1.4441.8635,2.1852,1.1868,2.9053,6.6624,14.8381,5.7637,29.2-3.4393,42.64-12.4741,18.2171-36.6511,19.9787-51.9785,4.0651-11.138-11.5639-14.23-31.05-7.2429-45.6469.5129-1.0715,1.0327-2.14,1.5493-3.2093l-.62-.494c-19.3715,6.5788-35.1835,18.16-48.0573,33.895,40.8607,52.7736,117.64,51.8777,157.4082-.0316C313.8653,241.419,298.05,229.8518,277.936,223.03Zm-29.8817,22.3441c-.0847-4.1431-.9933-7.0641-3.0027-9.6114a10.8746,10.8746,0,0,0-17.1375-.4643c-3.7385,4.357-4.2735,9.3653-2.2334,14.6091a11.5241,11.5241,0,0,0,10.6026,7.4617c5.0111-.125,8.439-2.7875,10.43-7.2081A27.0869,27.0869,0,0,0,248.0543,245.3739Z" transform="translate(4.9541 0)"/><path d="M-2.307.2209H154.1621l-51.59,74.2079c-1.1411-.42-2.1146-.7265-3.0461-1.129q-20.8278-8.9993-41.6325-18.051a15.3405,15.3405,0,0,1-4.1816-2.6351Q26.3978,27.578-.8351,2.4547C-1.4412,1.8971-2.139,1.4379-2.7941.9329Z" transform="translate(4.9541 0)"/><path d="M421.1332.2629c2.5523,12.68,5.0872,25.274,7.71,38.3067-37.2393,7.64-74.2976,15.1023-111.7676,22.7228C310.8293,40.99,304.8215,20.7636,298.6414.2629Z" transform="translate(4.9541 0)"/><path d="M384.7044,498.81l115.1017-49.3125V499.03C497.3061,499.6642,391.9021,499.9415,384.7044,498.81Z" transform="translate(4.9541 0)"/><path d="M191.1614,203.52l1.0971-.6493a3.1954,3.1954,0,0,1,.2265.49c-.3411.2245-.7077.4108-1.0682.606Z" transform="translate(4.9541 0)"/><path d="M277.936,223.03c20.114,6.822,35.9293,18.3892,48.8067,34.1237-39.7681,51.9093-116.5475,52.8052-157.4082.0316,12.8738-15.7351,28.6858-27.3162,48.0573-33.895l.62.494c-.5166,1.07-1.0364,2.1378-1.5493,3.2093-6.9874,14.5971-3.8951,34.083,7.2429,45.6469,15.3274,15.9136,39.5044,14.152,51.9785-4.0651,9.203-13.44,10.1017-27.802,3.4393-42.64C278.8,225.215,278.524,224.4739,277.936,223.03Z" transform="translate(4.9541 0)" style="fill:#fff"/><path d="M248.0543,245.3739a27.0869,27.0869,0,0,1-1.341,4.787c-1.991,4.4206-5.4189,7.0831-10.43,7.2081a11.5241,11.5241,0,0,1-10.6026-7.4617c-2.04-5.2438-1.5051-10.2521,2.2334-14.6091a10.8746,10.8746,0,0,1,17.1375.4643C247.061,238.31,247.97,241.2308,248.0543,245.3739Z" transform="translate(4.9541 0)" style="fill:#fff"/></svg>